<svg xmlns="http://www.w3.org/2000/svg" viewBox="0 0 960 680" role="img" aria-labelledby="title desc">
  <title id="title">Agenda financiera en tonos rosados</title>
  <desc id="desc">Cuaderno, calculadora, café, monedas y una alcancía sobre un escritorio pastel.</desc>
  <rect width="960" height="680" rx="36" fill="#fff7f1"/>
  <circle cx="792" cy="128" r="86" fill="#f7dce7"/>
  <circle cx="116" cy="556" r="118" fill="#eadff2"/>
  <rect x="142" y="132" width="404" height="430" rx="30" fill="#ffffff" stroke="#edc8d8" stroke-width="4"/>
  <rect x="176" y="168" width="336" height="58" rx="18" fill="#f7dce7"/>
  <g stroke="#e1cfc8" stroke-width="5" stroke-linecap="round">
    <path d="M184 276h318"/>
    <path d="M184 332h292"/>
    <path d="M184 388h318"/>
    <path d="M184 444h268"/>
  </g>
  <rect x="588" y="198" width="190" height="258" rx="28" fill="#f7fbff" stroke="#9bbbd6" stroke-width="4"/>
  <rect x="622" y="230" width="122" height="44" rx="12" fill="#dfeaf5"/>
  <g fill="#ffffff" stroke="#b7a1dc" stroke-width="3">
    <circle cx="636" cy="326" r="18"/><circle cx="684" cy="326" r="18"/><circle cx="732" cy="326" r="18"/>
    <circle cx="636" cy="378" r="18"/><circle cx="684" cy="378" r="18"/><circle cx="732" cy="378" r="18"/>
    <circle cx="636" cy="430" r="18"/><circle cx="684" cy="430" r="18"/><circle cx="732" cy="430" r="18"/>
  </g>
  <circle cx="688" cy="540" r="58" fill="#f5b7ce"/>
  <circle cx="652" cy="520" r="16" fill="#f9d3df"/>
  <rect x="665" y="496" width="58" height="18" rx="9" fill="#8b6f68"/>
  <circle cx="658" cy="546" r="6" fill="#523b38"/><circle cx="718" cy="546" r="6" fill="#523b38"/>
  <ellipse cx="688" cy="570" rx="25" ry="15" fill="#e58db8"/>
  <g fill="#d4a72c" stroke="#8f6c13" stroke-width="3">
    <circle cx="764" cy="526" r="23"/><circle cx="812" cy="546" r="20"/><circle cx="812" cy="496" r="18"/>
  </g>
  <rect x="592" y="72" width="172" height="84" rx="42" fill="#ffffff" stroke="#fbefd9" stroke-width="4"/>
  <circle cx="636" cy="114" r="24" fill="#4b3128"/>
  <path d="M611 114h50" stroke="#f1d0e0" stroke-width="8" stroke-linecap="round"/>
</svg>
